<?xml version="1.0" encoding="UTF-8" standalone="no"?>
<!DOCTYPE svg PUBLIC "-//W3C//DTD SVG 1.1//EN" "http://www.w3.org/Graphics/SVG/1.1/DTD/svg11.dtd">
<svg width="100%" height="100%" viewBox="0 0 334 140" version="1.1" xmlns="http://www.w3.org/2000/svg" xmlns:xlink="http://www.w3.org/1999/xlink" xml:space="preserve" xmlns:serif="http://www.serif.com/" style="fill-rule:evenodd;clip-rule:evenodd;stroke-linejoin:round;stroke-miterlimit:2;">
    <path d="M87.395,140C126.543,140 158.278,138.147 158.278,135.862C158.278,133.576 126.543,131.723 87.395,131.723C48.248,131.723 16.513,133.576 16.513,135.862C16.513,138.147 48.248,140 87.395,140Z" style="fill:rgb(138,17,20);fill-opacity:0.4;fill-rule:nonzero;"/>
    <path d="M66.7,27.434C63.852,29.781 61.07,33.564 62.7,37.67C64.33,41.776 74.764,42.189 76.958,40.5C79.81,38.306 77.291,28.538 75.068,28.48C74.9,24.857 69.08,25.47 66.7,27.434Z" style="fill:rgb(38,50,56);fill-rule:nonzero;"/>
    <path d="M62.711,66.972C62.711,66.972 63.856,87.788 65.117,99.059C65.245,109.642 67.676,133.551 67.676,133.551L70.348,133.551C70.798,121.688 74.099,110.611 71.906,100.148C77.024,79.602 73.518,66.986 73.518,66.986L62.711,66.972Z" style="fill:rgb(255,181,115);fill-rule:nonzero;"/>
    <path d="M65.621,66.986C65.621,66.986 71.123,90.076 72.629,99.91C74.216,110.242 76.578,130.29 76.469,133.544L78.775,133.544C78.775,133.544 82.65,113.261 79.064,100.276C82.021,71.029 74.724,67.008 74.724,67.008L65.621,66.986ZM52.428,40.28C52.256,39.034 49.968,38.928 49.968,38.928L48.87,38.376C48.472,38.133 47.947,38.25 47.69,38.639L47.324,39.246C47.105,39.737 47.279,40.321 47.73,40.613L48.062,40.854C48.628,41.259 49.298,41.494 49.992,41.531L51.005,41.586C51.227,41.599 51.45,41.572 51.663,41.506C52.182,41.343 52.506,40.817 52.417,40.28L52.428,40.28Z" style="fill:rgb(255,181,115);fill-rule:nonzero;"/>
    <path d="M64.48,47.574C64.379,47.679 64.275,47.78 64.166,47.877L63.878,48.133C63.688,48.294 63.49,48.443 63.296,48.593C62.904,48.883 62.501,49.157 62.086,49.413C61.257,49.912 60.386,50.337 59.483,50.685C57.685,51.385 55.775,51.756 53.846,51.782L53.678,51.782C53.416,51.776 53.157,51.723 52.914,51.624C52.643,51.512 52.394,51.351 52.182,51.149C51.907,50.879 51.684,50.562 51.521,50.213C51.293,49.719 51.123,49.2 51.013,48.667C50.819,47.749 50.697,46.818 50.647,45.881C50.548,44.087 50.585,42.288 50.757,40.5C50.799,40.084 51.154,39.764 51.572,39.764C51.982,39.764 52.331,40.072 52.384,40.478L52.384,40.5C52.581,42.203 52.808,43.933 53.114,45.589C53.25,46.391 53.437,47.183 53.674,47.961C53.769,48.28 53.898,48.586 54.062,48.875C54.127,48.981 54.193,49.032 54.164,48.995C54.116,48.943 54.056,48.903 53.989,48.879C53.93,48.852 53.867,48.833 53.802,48.824L53.703,48.824C54.489,48.752 55.269,48.623 56.036,48.437C56.796,48.247 57.541,48.002 58.266,47.705C58.988,47.396 59.683,47.03 60.346,46.609C60.837,46.307 61.308,45.973 61.757,45.611L61.969,45.435L62.13,45.292L62.225,45.208C62.525,44.942 62.913,44.795 63.314,44.795C64.214,44.795 64.956,45.537 64.956,46.437C64.956,46.871 64.783,47.288 64.477,47.596L64.481,47.574L64.48,47.574Z" style="fill:rgb(255,181,115);fill-rule:nonzero;"/>
    <path d="M66.28,43.516C63.387,43.033 60.352,45 58.78,46.6C57.969,49.042 60.568,52.01 60.568,52.01C60.568,52.01 64.271,49.737 65.606,48.183C66.94,46.63 67.946,43.793 66.278,43.515L66.28,43.516Z" style="fill:rgb(224,224,224);fill-rule:nonzero;"/>
    <path d="M75.236,66.708C75.236,66.708 79.316,69.604 80.084,79.229C80.391,83.02 80.943,98.145 82.105,104.652C77.919,107.642 65.387,107.233 63.425,105.485C63.98,92.325 58.949,74.868 62.598,66.84C68.638,66.098 75.236,66.708 75.236,66.708Z" style="fill:rgb(38,50,56);fill-rule:nonzero;"/>
    <path d="M71.098,94.313C71.153,88.783 70.338,81.171 67.862,76.659C68.707,82.289 71.098,94.313 71.098,94.313Z" style="fill-opacity:0.2;fill-rule:nonzero;"/>
    <path d="M60.682,47.976C60.682,51.109 58.185,52.754 61.012,55.166C61.179,57.872 61.377,62.716 62.207,67.129C63.066,68.324 69.347,68.225 75.872,66.811C75.02,63.027 75.335,56.863 77.569,48.433C77.641,48.15 77.677,47.86 77.677,47.568C77.677,45.872 76.446,44.407 74.775,44.115C74.214,44.015 73.651,43.929 73.086,43.859C71.046,43.559 68.986,43.405 66.923,43.399C66.257,43.399 65.567,43.443 64.908,43.487C62.549,43.633 60.685,45.612 60.682,47.976Z" style="fill:rgb(224,224,224);fill-rule:nonzero;"/>
    <path d="M74.014,53.416L66.354,55.15C66.065,55.216 65.881,55.508 65.947,55.797L68.427,66.747C68.493,67.036 68.784,67.22 69.073,67.155L76.733,65.421C76.978,65.365 77.154,65.145 77.154,64.894C77.154,64.853 77.149,64.813 77.14,64.773L74.66,53.823C74.594,53.535 74.303,53.351 74.014,53.416ZM67.68,47.438C67.68,47.438 66.44,48.923 65.417,49.266L65.3,49.998C66.594,49.833 67.789,49.216 68.674,48.258L67.679,47.438L67.68,47.438ZM64.313,46.543C64.313,46.543 64.261,48.473 64.795,49.416L64.397,50.046C63.535,49.065 63.046,47.811 63.015,46.506L64.312,46.543L64.313,46.543Z" style="fill:rgb(138,17,20);fill-rule:nonzero;"/>
    <path d="M72.834,36.906C72.344,38.851 71.77,42.437 73.086,43.852C73.086,43.852 68.184,45.19 64.989,49.577C63.526,44.967 66.937,43.392 66.937,43.392C69.171,43.026 69.2,41.395 68.893,39.831L72.834,36.906Z" style="fill:rgb(255,181,115);fill-rule:nonzero;"/>
    <path d="M71.23,38.102L68.897,39.838C68.972,40.199 69.016,40.566 69.028,40.935C69.877,40.876 71.083,40.039 71.222,39.165C71.286,38.814 71.288,38.454 71.229,38.102L71.23,38.102Z" style="fill-opacity:0.2;fill-rule:nonzero;"/>
    <path d="M75.108,33.44C74.168,36.592 73.84,37.948 71.862,39.187C68.886,41.048 65.282,39.133 65.259,35.747C65.259,32.698 66.784,28.07 70.173,27.566C73.562,27.061 76.063,30.286 75.108,33.44Z" style="fill:rgb(255,181,115);fill-rule:nonzero;"/>
    <path d="M72.651,28.838C71.763,31.876 72.524,35.053 74.337,35.418C76.856,34.478 76.731,31.682 76.087,30.402C75.445,29.122 73.163,27.087 72.651,28.838Z" style="fill:rgb(38,50,56);fill-rule:nonzero;"/>
    <path d="M74.03,34.296C72.63,34.76 72.359,35.7 72.359,35.7C72.359,35.7 73.32,35.02 74.242,35.148C74.108,34.884 74.036,34.592 74.03,34.296ZM70.531,33.144C70.469,33.404 70.282,33.579 70.111,33.539C69.939,33.499 69.847,33.247 69.91,32.987C69.972,32.727 70.158,32.548 70.33,32.592C70.502,32.636 70.579,32.885 70.531,33.144ZM67.288,32.373C67.226,32.633 67.04,32.808 66.868,32.764C66.696,32.72 66.605,32.475 66.667,32.212C66.729,31.949 66.915,31.777 67.087,31.821C67.259,31.865 67.354,32.11 67.288,32.373Z" style="fill:rgb(38,50,56);fill-rule:nonzero;"/>
    <path d="M67.168,31.854L66.579,31.514C66.579,31.514 66.788,32.084 67.168,31.854Z" style="fill:rgb(38,50,56);fill-rule:nonzero;"/>
    <path d="M67.903,32.797C67.531,33.332 67.085,33.813 66.579,34.223C66.804,34.483 67.131,34.634 67.475,34.636L67.903,32.797Z" style="fill:rgb(237,137,62);fill-rule:nonzero;"/>
    <path d="M75.126,36.603C74.734,37.062 74.162,37.329 73.558,37.333C72.794,37.312 72.662,36.435 73.083,35.714C73.448,35.064 74.311,34.292 74.977,34.661C75.642,35.031 75.645,36.011 75.127,36.603L75.126,36.603Z" style="fill:rgb(255,181,115);fill-rule:nonzero;"/>
    <path d="M71.142,32.026C71.102,32.006 71.072,31.972 71.058,31.93C70.939,31.543 70.647,31.233 70.268,31.09C70.198,31.071 70.149,31.007 70.149,30.935C70.149,30.901 70.16,30.868 70.18,30.84C70.218,30.789 70.284,30.767 70.345,30.786C70.83,30.955 71.206,31.345 71.357,31.836C71.363,31.853 71.367,31.871 71.367,31.889C71.367,31.955 71.323,32.014 71.259,32.033C71.221,32.046 71.179,32.043 71.142,32.026ZM66.111,30.816C66.07,30.817 66.029,30.803 65.998,30.776C65.937,30.714 65.937,30.614 65.998,30.552C66.328,30.17 66.826,29.973 67.328,30.026C67.414,30.041 67.475,30.122 67.464,30.209C67.452,30.285 67.386,30.342 67.309,30.342C67.301,30.342 67.292,30.341 67.284,30.34C66.886,30.3 66.493,30.459 66.235,30.764C66.203,30.799 66.158,30.818 66.111,30.816ZM70.403,32.629L69.814,32.285C69.814,32.285 70.023,32.859 70.404,32.629L70.403,32.629Z" style="fill:rgb(38,50,56);fill-rule:nonzero;"/>
    <path d="M70.213,58.585L67.288,58.018L67.618,61.378C67.618,61.378 69.811,61.283 71.061,60.281L71.178,59.843C71.043,59.115 70.878,58.848 70.213,58.585Z" style="fill:rgb(255,181,115);fill-rule:nonzero;"/>
    <path d="M65.53,59.452L65.87,60.874C65.972,61.295 66.385,61.571 66.813,61.506L67.632,61.378L67.303,58.018L66.056,58.472C65.66,58.617 65.432,59.041 65.53,59.452ZM76.753,46.572C77.642,48.274 78.418,50.032 79.075,51.836C79.404,52.739 79.715,53.664 79.963,54.611C80.234,55.592 80.418,56.596 80.511,57.609C80.533,57.876 80.544,58.15 80.548,58.428L80.548,58.684C80.515,59 80.41,59.303 80.241,59.572C80.071,59.835 79.85,60.06 79.591,60.234C79.273,60.446 78.921,60.602 78.551,60.698C78.272,60.775 77.988,60.836 77.701,60.878C76.704,61.003 75.698,61.041 74.695,60.991C72.793,60.903 70.9,60.676 69.032,60.311C68.637,60.249 68.344,59.905 68.344,59.506C68.344,59.059 68.711,58.691 69.159,58.691C69.163,58.691 69.168,58.691 69.172,58.691C70.999,58.658 72.849,58.611 74.629,58.475C75.482,58.416 76.329,58.295 77.163,58.11C77.333,58.07 77.5,58.02 77.663,57.956C77.744,57.934 77.819,57.894 77.883,57.839C77.813,57.881 77.755,57.94 77.715,58.011C77.638,58.131 77.59,58.268 77.575,58.41C77.573,58.434 77.573,58.459 77.575,58.483C77.575,58.296 77.543,58.117 77.514,57.913C77.194,56.218 76.696,54.562 76.026,52.973C75.354,51.31 74.623,49.673 73.832,48.063L73.832,48.034C73.753,47.838 73.712,47.629 73.712,47.418C73.712,46.515 74.455,45.772 75.358,45.772C75.927,45.772 76.457,46.067 76.757,46.55L76.753,46.572Z" style="fill:rgb(255,181,115);fill-rule:nonzero;"/>
    <path d="M74.966,44.229C77.06,44.616 77.993,46.499 79.513,50.257C79.049,52.787 75.331,54.117 75.331,54.117C75.331,54.117 73.196,50.334 72.772,48.327C72.348,46.32 72.852,43.837 74.966,44.229Z" style="fill:rgb(224,224,224);fill-rule:nonzero;"/>
    <path d="M70.538,133.58C70.502,133.481 70.402,133.419 70.298,133.431L67.818,133.394C67.565,133.377 67.312,133.431 67.088,133.551C65.953,134.26 64.678,134.715 63.351,134.886C62.825,134.966 63.062,135.854 64.305,135.869C66.356,135.891 66.729,135.737 68.48,135.756C69.975,135.774 69.262,135.84 70.45,135.869C70.736,135.869 70.97,135.69 70.933,135.503L70.538,133.58ZM79.09,133.58C79.053,133.481 78.953,133.419 78.848,133.431L76.826,133.394C76.573,133.376 76.319,133.43 76.096,133.551C75.364,134.059 75.466,134.648 73.799,134.886C73.273,134.966 73.532,135.854 74.775,135.869C76.826,135.891 76.702,135.756 77.535,135.756C78.369,135.756 77.857,135.84 79.049,135.869C79.334,135.869 79.564,135.69 79.521,135.503L79.089,133.58L79.09,133.58Z" style="fill:rgb(38,50,56);fill-rule:nonzero;"/>
    <path d="M66.33,48.002C67.369,48.045 69.273,48.897 69.884,49.807C70.747,48.912 74.117,46.832 74.176,44.013C73.764,43.616 73.244,43.349 72.681,43.245C72.118,43.141 68.184,45.42 66.331,48.002L66.33,48.002ZM64.649,47.855C64.649,47.855 64.367,45.578 67.124,43.365C66.846,43.139 65.757,43.395 65.757,43.395C65.757,43.395 62.536,44.781 62.631,48.367C63.211,47.94 63.936,47.756 64.649,47.855Z" style="fill:rgb(250,250,250);fill-rule:nonzero;"/>
    <path d="M64.24,48.82C63.84,49.007 63.684,50.305 64.24,50.608C64.795,50.911 64.74,49.672 65.062,49.248C65.384,48.824 64.938,48.495 64.239,48.82L64.24,48.82Z" style="fill:rgb(138,17,20);fill-rule:nonzero;"/>
    <path d="M64.73,49.325C64.444,49.69 64.813,50.933 65.427,50.93C66.042,50.926 65.512,49.833 65.632,49.292C65.752,48.751 65.216,48.682 64.729,49.325L64.73,49.325Z" style="fill:rgb(138,17,20);fill-rule:nonzero;"/>
    <path d="M64.813,50.25C64.13,49.193 64.083,54.761 65.738,56.955C65.628,54.794 66.788,51.73 64.813,50.25Z" style="fill:rgb(138,17,20);fill-rule:nonzero;"/>
    <path d="M64.751,50.202C64.448,49.127 62.923,53.836 63.768,56.136C64.247,54.275 66.034,51.979 64.751,50.202Z" style="fill:rgb(138,17,20);fill-rule:nonzero;"/>
    <path d="M69.847,35.641C70.007,35.571 70.16,35.489 70.304,35.393C70.33,35.368 70.338,35.33 70.324,35.297C70.319,35.286 70.313,35.276 70.304,35.268C70.273,35.228 70.216,35.219 70.173,35.246C69.513,35.689 68.687,35.809 67.928,35.572C67.906,35.562 67.881,35.562 67.858,35.57C67.835,35.579 67.817,35.597 67.808,35.62C67.791,35.667 67.816,35.719 67.862,35.736C68.513,35.95 69.22,35.916 69.847,35.641Z" style="fill:rgb(38,50,56);fill-rule:nonzero;"/>
    <path d="M59.238,38.218L40.561,38.218L40.561,38.825L59.238,38.825L59.238,38.218ZM58.792,38.825L41.007,38.825L41.789,39.249L58.009,39.249L58.792,38.825Z" style="fill:rgb(138,17,20);fill-rule:nonzero;"/>
    <path d="M58.792,38.825L41.007,38.825L41.789,39.249L58.009,39.249L58.792,38.825Z" style="fill-opacity:0.2;fill-rule:nonzero;"/>
    <path d="M46.545,21.961C46.319,21.959 46.134,21.774 46.132,21.548L46.132,20.163C46.134,19.937 46.319,19.751 46.545,19.749C46.771,19.751 46.956,19.937 46.958,20.163L46.958,21.548C46.956,21.774 46.771,21.959 46.545,21.961Z" style="fill:rgb(38,50,56);fill-rule:nonzero;"/>
    <path d="M47.21,20.078L47.21,19.896C47.21,19.72 47.065,19.575 46.889,19.574L46.202,19.574C46.025,19.574 45.88,19.719 45.88,19.896L45.88,20.078C45.88,20.256 46.024,20.4 46.202,20.4L46.889,20.4C47.066,20.4 47.211,20.255 47.211,20.078L47.21,20.078Z" style="fill:rgb(38,50,56);fill-rule:nonzero;"/>
    <path d="M47.207,24.97L47.207,21.018C47.207,20.929 47.136,20.856 47.047,20.853L46.044,20.853C45.955,20.856 45.884,20.929 45.884,21.018L45.884,24.97C45.884,25.571 45.627,26.143 45.178,26.542C44.731,26.944 44.474,27.517 44.472,28.118L44.472,38.255L48.614,38.255L48.614,28.118C48.614,27.517 48.357,26.943 47.909,26.542C47.462,26.142 47.207,25.57 47.207,24.97Z" style="fill:rgb(138,17,20);fill-rule:nonzero;"/>
    <rect x="45.88" y="29.317" width="2.734" height="6.554" style="fill:rgb(224,224,224);fill-rule:nonzero;"/>
    <path d="M52.497,38.218L52.003,38.218C52.168,38.23 52.333,38.23 52.497,38.218ZM55.476,38.218L54.979,38.218C55.145,38.229 55.311,38.229 55.476,38.218Z" style="fill:rgb(138,17,20);fill-rule:nonzero;"/>
    <path d="M51.835,30.486L51.835,32.15C51.835,33.473 52.588,34.574 53.542,34.709L53.542,37.634C53.542,38.084 53.104,38.211 52.764,38.24L54.712,38.24C54.372,38.211 53.934,38.083 53.934,37.634L53.934,34.709C54.888,34.577 55.641,33.477 55.641,32.149L55.641,30.486L51.835,30.486Z" style="fill:rgb(138,17,20);fill-opacity:0.2;fill-rule:nonzero;"/>
    <path d="M74.487,28.922C73.024,29.543 68.126,29.733 66.207,29.317C68.191,26.513 72.651,25.69 74.487,28.922ZM79.097,38.939C79.068,38.938 79.041,38.925 79.024,38.902C78.976,38.836 77.897,37.25 77.876,33.002C77.876,31.229 77.331,29.802 76.413,29.082C75.93,28.683 75.285,28.537 74.677,28.688C74.653,28.694 74.628,28.689 74.607,28.676C74.581,28.659 74.565,28.63 74.565,28.599C74.565,28.556 74.594,28.519 74.636,28.509C75.297,28.351 75.995,28.509 76.523,28.936C77.492,29.693 78.051,31.174 78.062,32.998C78.084,37.18 79.159,38.782 79.159,38.796C79.173,38.816 79.179,38.841 79.174,38.865C79.17,38.889 79.157,38.911 79.137,38.925C79.125,38.932 79.111,38.937 79.097,38.939ZM105.404,17.417C106.424,18.813 106.42,20.989 106.073,22.169C104.245,21.339 104.53,18.956 104.53,18.956L105.404,17.417Z" style="fill:rgb(38,50,56);fill-rule:nonzero;"/>
    <path d="M110.869,34.702L111.922,35.861L113.019,37.038C113.74,37.812 114.478,38.568 115.234,39.308C115.6,39.673 115.965,40.039 116.357,40.361C116.748,40.683 117.088,41.026 117.472,41.322C117.856,41.618 118.203,41.882 118.543,42.108C118.799,42.28 119.068,42.432 119.347,42.562L118.788,42.474C118.622,42.454 118.455,42.491 118.313,42.58C118.171,42.669 118.4,42.58 118.525,42.507C118.864,42.299 119.179,42.054 119.464,41.776C120.213,41.065 120.913,40.304 121.559,39.498C122.266,38.639 122.951,37.761 123.613,36.866C124.291,35.957 124.964,35.045 125.631,34.128L125.664,34.088C125.976,33.679 126.462,33.439 126.976,33.439C127.881,33.439 128.626,34.184 128.626,35.089C128.626,35.245 128.604,35.4 128.56,35.55C128.19,36.705 127.761,37.841 127.277,38.953C126.79,40.073 126.253,41.171 125.668,42.243C125.046,43.384 124.327,44.469 123.518,45.486C123.036,46.087 122.492,46.636 121.895,47.124C121.5,47.444 121.066,47.714 120.605,47.928C119.927,48.244 119.185,48.397 118.437,48.374C118.299,48.369 118.162,48.35 118.027,48.319L117.874,48.287C117.073,48.095 116.298,47.806 115.567,47.427C114.954,47.115 114.362,46.765 113.794,46.378C112.752,45.677 111.757,44.906 110.818,44.072C109.915,43.278 109.045,42.448 108.211,41.582C107.799,41.153 107.396,40.717 107.001,40.273C106.599,39.817 106.205,39.354 105.821,38.883C104.872,37.503 105.12,35.608 106.391,34.518C107.664,33.429 109.575,33.476 110.792,34.628L110.869,34.702Z" style="fill:rgb(224,224,224);fill-rule:nonzero;"/>
    <path d="M127.269,36.102L130.527,36.259L129.47,31.872C129.47,31.872 126.439,32.095 125.953,33.652C125.902,33.826 125.913,34.012 125.982,34.179L126.582,35.616C126.697,35.897 126.966,36.087 127.269,36.102Z" style="fill:rgb(255,139,123);fill-rule:nonzero;"/>
    <path d="M133.433,33.656L132.804,32.194C132.553,31.611 131.911,31.291 131.294,31.441L129.466,31.891L130.523,36.277L132.716,35.393C133.045,35.262 133.308,35.003 133.443,34.676C133.579,34.349 133.575,33.98 133.433,33.656Z" style="fill:rgb(255,139,123);fill-rule:nonzero;"/>
    <path d="M103.166,96.854C99.708,81.642 97.569,63.301 97.569,63.301L111.75,63.074C111.75,63.074 111.553,87.791 111.582,98.144C111.619,108.911 112.365,132.604 112.365,132.604L108.062,132.604C108.062,132.604 102.508,110.161 103.166,96.854Z" style="fill:rgb(38,50,56);fill-rule:nonzero;"/>
    <path d="M102.062,75.866L99.818,79.193C100.487,83.346 101.28,87.919 102.205,92.401C102.593,85.514 102.527,77.511 102.062,75.866Z" style="fill-rule:nonzero;"/>
    <path d="M118.104,134.714C118.104,134.714 112.178,133.317 111.732,132.378L108.442,132.378L108.464,135.862L110.496,135.862L110.807,135.54L111.323,135.862C112.968,135.862 117.34,135.796 118.375,135.427C118.416,135.159 118.313,134.887 118.104,134.714ZM89.976,96.426C91.618,81.126 91.566,70.906 93.566,63.366L106.479,63.173C106.479,63.173 101.101,87.44 98.604,97.538C96.107,107.635 91.834,132.597 91.834,132.597L87.849,132.597C87.849,132.597 86.595,108.257 89.976,96.427L89.976,96.426Z" style="fill:rgb(38,50,56);fill-rule:nonzero;"/>
    <path d="M92.543,66.346C92.257,68.174 91.241,78.988 90.188,82.926C98.798,86.746 111.959,85.243 112.365,82.765C112.244,78.173 111.999,66.346 111.999,66.346L92.543,66.346Z" style="fill:rgb(224,224,224);fill-rule:nonzero;"/>
    <path d="M93.022,68.353C93.623,69.327 94.349,70.218 95.182,71.003C96.015,71.788 93.325,70.671 93.022,68.353ZM110.328,70.901C110.822,70.165 111.222,69.371 111.52,68.536C111.818,67.701 111.604,70.404 110.328,70.901ZM93.102,69.732C93.301,70.464 93.594,71.167 93.976,71.822C93.265,71.389 92.91,70.542 93.102,69.732Z" style="fill-opacity:0.1;fill-rule:nonzero;"/>
    <path d="M95.548,134.714C95.548,134.714 91.852,133.317 91.428,132.378L88.138,132.378L88.072,135.862L90.766,135.862L91.084,135.54L91.592,135.862C93.237,135.862 94.754,135.796 95.8,135.427C95.851,135.162 95.754,134.889 95.548,134.714ZM93.091,32.844C97.654,32.278 104.168,32.333 108.537,33.086C110.77,33.491 112.505,35.289 112.829,37.535C113.746,44.134 112.957,55.665 112.372,67.271C102.391,70.686 91.862,67.224 91.862,67.224C91.497,64.884 92.316,57.21 92.864,53.116C92.042,48.886 90.305,44.042 89.143,38.423C89.069,38.092 89.031,37.755 89.031,37.416C89.031,35.095 90.786,33.118 93.091,32.844Z" style="fill:rgb(38,50,56);fill-rule:nonzero;"/>
    <path d="M93.091,32.844C97.654,32.278 104.168,32.333 108.537,33.086C110.77,33.491 112.505,35.289 112.829,37.535C113.746,44.134 112.957,55.665 112.372,67.271C102.391,70.686 91.862,67.224 91.862,67.224C91.497,64.884 92.316,57.21 92.864,53.116C92.042,48.886 90.305,44.042 89.143,38.423C89.069,38.092 89.031,37.755 89.031,37.416C89.031,35.095 90.786,33.118 93.091,32.844Z" style="fill:white;fill-opacity:0.1;fill-rule:nonzero;"/>
    <path d="M97.606,24.133L102.797,28.392C102.125,30.179 101.913,32.047 104.845,32.753C105.576,33.722 104.479,35.422 103.177,36.083C100.099,35.382 98.327,34.555 97.131,32.913C97.507,31.627 98.107,26.776 97.606,24.133Z" style="fill:rgb(255,139,123);fill-rule:nonzero;"/>
    <path d="M99.77,25.91L102.797,28.388C102.633,28.801 102.511,29.23 102.432,29.668C101.258,29.752 99.628,28.571 99.555,27.496C99.528,26.958 99.601,26.42 99.77,25.909L99.77,25.91Z" style="fill-opacity:0.2;fill-rule:nonzero;"/>
    <path d="M96.86,21.23C97.335,24.487 97.445,26.418 99.24,27.946C101.942,30.246 105.861,28.373 106.373,25.021C106.83,22.012 105.978,17.191 102.662,16.181C102.234,16.051 101.789,15.985 101.341,15.985C98.852,15.985 96.804,18.033 96.804,20.522C96.804,20.759 96.823,20.996 96.86,21.23Z" style="fill:rgb(255,139,123);fill-rule:nonzero;"/>
    <path d="M96.83,22.733C97.513,23.472 98.571,23.743 99.525,23.423C98.743,22.63 99.503,19.728 98.721,18.547C100.235,18.847 106.128,19.702 106.691,17.658C107.301,15.465 104.863,13.714 103.495,13.549C103.898,14.463 103.861,15.125 102.362,14.829C100.863,14.533 94.685,13.107 95.369,16.002C93.379,16.002 93.245,18.898 94.699,20.283C95.496,21.02 96.211,21.842 96.831,22.733L96.83,22.733Z" style="fill:rgb(38,50,56);fill-rule:nonzero;"/>
    <path d="M95.734,15.863C94.542,15.567 94.915,14.47 95.182,14.357C94.067,14.627 93.662,15.724 95.007,16.229C96.352,16.733 95.734,15.863 95.734,15.863Z" style="fill:rgb(38,50,56);fill-rule:nonzero;"/>
    <path d="M95.943,23.23C96.167,23.95 96.67,24.552 97.339,24.9C98.235,25.357 98.885,24.604 98.801,23.661C98.732,22.809 98.187,21.548 97.207,21.468C97.186,21.467 97.165,21.466 97.144,21.466C96.436,21.466 95.853,22.049 95.853,22.757C95.853,22.919 95.884,23.079 95.943,23.23Z" style="fill:rgb(255,139,123);fill-rule:nonzero;"/>
    <path d="M101.434,21.347C101.456,21.614 101.616,21.819 101.799,21.804C101.982,21.789 102.099,21.555 102.077,21.292C102.055,21.029 101.894,20.82 101.711,20.835C101.529,20.85 101.412,21.08 101.434,21.347ZM104.621,21.27C104.643,21.537 104.804,21.742 104.987,21.724C105.17,21.705 105.283,21.479 105.261,21.212C105.239,20.945 105.078,20.744 104.896,20.758C104.713,20.773 104.6,21.003 104.621,21.27Z" style="fill:rgb(38,50,56);fill-rule:nonzero;"/>
    <path d="M103.974,21.628C104.359,22.414 104.851,23.143 105.437,23.793C105.002,24.275 104.183,24.158 104.183,24.158L103.974,21.628Z" style="fill:rgb(255,86,82);fill-rule:nonzero;"/>
    <path d="M100.94,20.499C100.915,20.506 100.888,20.506 100.863,20.499C100.803,20.476 100.763,20.419 100.763,20.355C100.763,20.334 100.768,20.313 100.776,20.294C100.952,19.818 101.349,19.455 101.839,19.322C101.849,19.32 101.86,19.319 101.871,19.319C101.957,19.319 102.029,19.39 102.029,19.477C102.029,19.552 101.975,19.617 101.902,19.632C101.514,19.742 101.201,20.032 101.064,20.412C101.053,20.436 101.035,20.456 101.014,20.471C100.992,20.486 100.967,20.496 100.94,20.499ZM106.471,20.075C106.418,20.075 106.368,20.048 106.34,20.002C106.142,19.656 105.789,19.426 105.393,19.384C105.33,19.383 105.273,19.343 105.25,19.284C105.242,19.265 105.239,19.244 105.239,19.223C105.242,19.136 105.317,19.066 105.404,19.069C105.906,19.115 106.356,19.401 106.61,19.837C106.631,19.873 106.637,19.915 106.628,19.955C106.618,19.995 106.594,20.03 106.559,20.053C106.533,20.07 106.502,20.078 106.471,20.075Z" style="fill:rgb(38,50,56);fill-rule:nonzero;"/>
    <path d="M97.13,32.914C97.13,32.914 102.457,41.008 104.483,46.718C106.479,40.018 106.709,34.654 104.848,32.753C104.249,33.51 101.836,34.533 97.131,32.913L97.13,32.914ZM95.314,38.895L94.798,40.357L94.287,41.878C93.952,42.88 93.639,43.89 93.347,44.905C93.201,45.405 93.073,45.903 92.956,46.393C92.839,46.883 92.726,47.369 92.645,47.833C92.565,48.298 92.503,48.747 92.462,49.149C92.442,49.457 92.442,49.766 92.462,50.074L92.272,49.541C92.119,49.251 91.962,49.175 91.954,49.175C91.947,49.175 92.005,49.248 92.119,49.329C92.459,49.529 92.821,49.691 93.197,49.811C94.169,50.138 95.162,50.399 96.169,50.593C97.24,50.805 98.344,50.959 99.459,51.142C100.575,51.325 101.722,51.452 102.826,51.61L102.878,51.61C103.684,51.729 104.287,52.428 104.287,53.242C104.287,54.025 103.73,54.706 102.962,54.86C101.771,55.086 100.569,55.252 99.361,55.357C98.146,55.468 96.925,55.521 95.705,55.514C94.406,55.512 93.11,55.398 91.83,55.174C91.078,55.034 90.343,54.817 89.636,54.527C89.165,54.333 88.72,54.08 88.313,53.774C87.712,53.33 87.224,52.752 86.887,52.085C86.825,51.961 86.775,51.831 86.737,51.697L86.697,51.547C86.484,50.751 86.367,49.933 86.35,49.109C86.332,48.422 86.358,47.735 86.427,47.051C86.543,45.801 86.745,44.562 87.03,43.341C87.293,42.167 87.607,41.006 87.973,39.86C88.332,38.712 88.743,37.581 89.205,36.471C89.716,35.251 90.916,34.452 92.239,34.452C94.044,34.452 95.529,35.938 95.529,37.742C95.529,38.107 95.469,38.469 95.35,38.814L95.314,38.894L95.314,38.895Z" style="fill:rgb(224,224,224);fill-rule:nonzero;"/>
    <path d="M103.346,52.081L106.577,52.483L104.793,56.618C104.793,56.618 101.843,55.888 101.631,54.264C101.61,54.084 101.653,53.903 101.752,53.752L102.585,52.44C102.748,52.184 103.045,52.044 103.346,52.081ZM109.001,55.543L108.131,56.889C107.783,57.42 107.097,57.624 106.515,57.371L104.793,56.618L106.577,52.483L108.592,53.73C108.89,53.913 109.101,54.209 109.177,54.55C109.253,54.891 109.19,55.249 109.001,55.543Z" style="fill:rgb(255,139,123);fill-rule:nonzero;"/>
    <path d="M97.39,31.656C96.711,31.764 96.088,32.099 95.624,32.606C97.071,34.538 99.136,35.919 101.474,36.519C101.306,35.959 101.81,34.325 102.366,33.74C100.322,33.437 97.39,31.656 97.39,31.656Z" style="fill:rgb(250,250,250);fill-rule:nonzero;"/>
    <path d="M103.006,31.857C103.699,31.983 104.358,32.254 104.94,32.651C105.522,33.048 106.987,34.936 104.574,36.226C104.738,35.666 103.477,34.176 102.348,33.74C104.388,33.437 103.006,31.857 103.006,31.857Z" style="fill:rgb(250,250,250);fill-rule:nonzero;"/>
    <path d="M102.574,35.042C100.958,34.175 98.959,33.236 99.514,34.752C100.07,36.27 99.335,36.796 100.059,37.312C100.783,37.827 102.253,36.412 102.739,36.215C103.225,36.018 102.574,35.042 102.574,35.042ZM103.719,35.03C104.951,34.2 106.493,33.301 106.219,34.782C105.945,36.262 106.625,36.778 106.087,37.279C105.55,37.779 104.168,36.379 103.729,36.182C103.291,35.985 103.719,35.031 103.719,35.031L103.719,35.03Z" style="fill:rgb(138,17,20);fill-rule:nonzero;"/>
    <path d="M102.355,34.925C102.72,34.705 103.612,34.428 104.055,35.023C104.497,35.619 104.355,36.617 103.744,36.738C103.3,36.827 102.842,36.666 102.552,36.318C102.832,35.869 102.748,35.279 102.355,34.925Z" style="fill:rgb(138,17,20);fill-rule:nonzero;"/>
    <path d="M92.056,132.714L87.622,132.838L87.388,130.327L92.539,130.634L92.056,132.714ZM112.522,132.707L107.733,132.838L107.202,130.663L112.551,130.144L112.522,132.707Z" style="fill-rule:nonzero;"/>
    <path d="M102.084,51.23C99.845,50.568 97.536,50.169 95.204,50.041C94.707,50.071 94.517,61.305 94.557,65.901C94.557,66.521 101.708,66.397 103.536,66.116C103.638,64.833 103.66,55.466 104.135,52.538C104.21,52.068 103.952,51.604 103.514,51.419C103.061,51.236 102.569,51.171 102.084,51.229L102.084,51.23Z" style="fill:white;fill-rule:nonzero;"/>
    <path d="M139.516,33.247L119.219,33.247L119.219,33.824L139.516,33.824L139.516,33.247ZM139.092,33.824L119.643,33.824L120.389,34.23L138.35,34.23L139.092,33.824Z" style="fill:rgb(138,17,20);fill-rule:nonzero;"/>
    <path d="M139.092,33.824L119.643,33.824L120.389,34.23L138.35,34.23L139.092,33.824Z" style="fill-opacity:0.2;fill-rule:nonzero;"/>
    <path d="M130.205,25.087C130.205,25.548 129.826,25.927 129.365,25.927C129.312,25.927 129.259,25.922 129.207,25.912C128.815,25.837 128.529,25.49 128.529,25.091C128.529,24.812 128.669,24.55 128.902,24.395C129.04,24.303 129.202,24.254 129.367,24.254C129.825,24.254 130.202,24.629 130.205,25.087ZM138.142,30.567C137.578,28.822 136.506,27.284 135.063,26.151L135.29,25.861C136.791,27.04 137.906,28.641 138.493,30.457L138.142,30.567ZM133.795,25.31C133.385,25.084 132.959,24.89 132.519,24.729L132.643,24.385C133.1,24.557 133.544,24.764 133.97,25.003L133.795,25.31Z" style="fill:rgb(138,17,20);fill-rule:nonzero;"/>
    <path d="M129.368,25.087C124.813,25.087 121.066,28.834 121.065,33.389L137.67,33.389C137.67,28.835 133.922,25.087 129.368,25.087Z" style="fill:rgb(138,17,20);fill-rule:nonzero;"/>
    <path d="M122.21,32.647L124.356,32.647C124.508,32.644 124.638,32.534 124.666,32.384C125.098,30.11 126.454,28.128 128.611,26.407C128.712,26.327 128.747,26.188 128.696,26.069C128.646,25.951 128.523,25.879 128.395,25.895C125.054,26.336 122.389,28.956 121.892,32.289C121.881,32.38 121.909,32.471 121.969,32.54C122.03,32.609 122.118,32.648 122.21,32.647Z" style="fill:white;fill-opacity:0.3;fill-rule:nonzero;"/>
    <path d="M102.954,25.109C103.125,25.116 103.297,25.108 103.466,25.083C103.489,25.079 103.509,25.065 103.522,25.046C103.535,25.027 103.54,25.004 103.536,24.981C103.523,24.932 103.476,24.899 103.426,24.904C102.653,25.019 101.868,24.774 101.298,24.239C101.273,24.212 101.233,24.204 101.2,24.219C101.189,24.224 101.179,24.231 101.17,24.239C101.154,24.257 101.146,24.279 101.146,24.303C101.146,24.326 101.154,24.349 101.17,24.367C101.654,24.824 102.289,25.089 102.954,25.109Z" style="fill:rgb(38,50,56);fill-rule:nonzero;"/>
    <g transform="matrix(1,0,0,1,-21,1)">
        <text x="184.427px" y="53.128px" style="font-family:'Heebo-Regular_Black', 'Heebo';font-size:20px;fill:white;">W<tspan x="202.951px 217.218px 223.867px 236.844px 249.919px 261.92px 276.187px 288.441px " y="53.128px 53.128px 53.128px 53.128px 53.128px 53.128px 53.128px 53.128px ">AITSTAFF</tspan></text>
        <text x="304.75px" y="53.128px" style="font-family:'Heebo-Regular_Light', 'Heebo';font-size:20px;fill:white;">APP</text>
    </g>
    <g transform="matrix(1,0,0,1,2,-22)">
        <text x="188.497px" y="107.83px" style="font-family:'Heebo-Regular', 'Heebo';font-size:18px;fill:white;">The W<tspan x="238.85px " y="107.83px ">a</tspan>iter &amp;</text>
        <text x="188.497px" y="125.83px" style="font-family:'Heebo-Regular', 'Heebo';font-size:18px;fill:white;">W<tspan x="204.177px " y="125.83px ">a</tspan>itress&apos; App</text>
    </g>
</svg>
